<svg width="180" height="180" viewBox="0 0 180 180" fill="none" xmlns="http://www.w3.org/2000/svg">
<circle cx="90" cy="90" r="90" fill="#343C4F"/>
<path d="M84.369 142V129.578C79.2674 128.422 74.8636 126.207 71.1578 122.933C67.4519 119.659 64.7326 115.037 63 109.067L73.6845 104.733C75.1283 109.356 77.2701 112.87 80.1096 115.278C82.9492 117.685 86.6791 118.889 91.2995 118.889C95.246 118.889 98.5909 117.998 101.334 116.217C104.078 114.435 105.449 111.667 105.449 107.911C105.449 104.541 104.39 101.869 102.273 99.8944C100.155 97.9204 95.246 95.6815 87.5455 93.1778C79.2674 90.5778 73.5882 87.4722 70.508 83.8611C67.4278 80.25 65.8877 75.8444 65.8877 70.6444C65.8877 64.3852 67.9091 59.5222 71.9519 56.0556C75.9947 52.5889 80.1337 50.6148 84.369 50.1333V38H95.9198V50.1333C100.733 50.9037 104.703 52.6611 107.832 55.4056C110.96 58.15 113.246 61.4963 114.69 65.4444L104.005 70.0667C102.85 66.9852 101.214 64.6741 99.0963 63.1333C96.9786 61.5926 94.0909 60.8222 90.4332 60.8222C86.1979 60.8222 82.9733 61.7611 80.7594 63.6389C78.5455 65.5167 77.4385 67.8519 77.4385 70.6444C77.4385 73.8222 78.8824 76.3259 81.7701 78.1556C84.6578 79.9852 89.6631 81.9111 96.7861 83.9333C103.428 85.8593 108.457 88.9167 111.874 93.1056C115.291 97.2944 117 102.133 117 107.622C117 114.459 114.979 119.659 110.936 123.222C106.893 126.785 101.888 129 95.9198 129.867V142H84.369Z" fill="white"/>
</svg>
