<svg width="78" height="78" viewBox="0 0 78 78" fill="none" xmlns="http://www.w3.org/2000/svg">
<circle cx="39" cy="39" r="39" fill="#343C4F"/>
<path d="M35.893 61V55.2667C33.5312 54.7333 31.4924 53.7111 29.7767 52.2C28.0611 50.6889 26.8021 48.5556 26 45.8L30.9465 43.8C31.615 45.9333 32.6065 47.5556 33.9211 48.6667C35.2357 49.7778 36.9626 50.3333 39.1016 50.3333C40.9287 50.3333 42.4773 49.9222 43.7473 49.1C45.0174 48.2778 45.6524 47 45.6524 45.2667C45.6524 43.7111 45.1622 42.4778 44.1818 41.5667C43.2014 40.6556 40.9287 39.6222 37.3636 38.4667C33.5312 37.2667 30.902 35.8333 29.4759 34.1667C28.0499 32.5 27.3369 30.4667 27.3369 28.0667C27.3369 25.1778 28.2727 22.9333 30.1444 21.3333C32.016 19.7333 33.9323 18.8222 35.893 18.6V13H41.2406V18.6C43.4688 18.9556 45.307 19.7667 46.7553 21.0333C48.2037 22.3 49.262 23.8444 49.9305 25.6667L44.984 27.8C44.4492 26.3778 43.6916 25.3111 42.7112 24.6C41.7308 23.8889 40.3939 23.5333 38.7005 23.5333C36.7398 23.5333 35.2469 23.9667 34.2219 24.8333C33.197 25.7 32.6845 26.7778 32.6845 28.0667C32.6845 29.5333 33.3529 30.6889 34.6898 31.5333C36.0267 32.3778 38.344 33.2667 41.6417 34.2C44.7166 35.0889 47.045 36.5 48.627 38.4333C50.209 40.3667 51 42.6 51 45.1333C51 48.2889 50.0642 50.6889 48.1925 52.3333C46.3209 53.9778 44.0036 55 41.2406 55.4V61H35.893Z" fill="white"/>
</svg>
