<svg width="78" height="78" viewBox="0 0 78 78" fill="none" xmlns="http://www.w3.org/2000/svg">
<circle cx="39" cy="39" r="39" fill="#343C4F"/>
<path d="M36.1707 35.2308C33.8098 35.2308 31.7886 34.3872 30.1073 32.7C28.426 31.0128 27.5854 28.9846 27.5854 26.6154C27.5854 24.2462 28.426 22.2179 30.1073 20.5308C31.7886 18.8436 33.8098 18 36.1707 18C38.5317 18 40.5528 18.8436 42.2341 20.5308C43.9154 22.2179 44.7561 24.2462 44.7561 26.6154C44.7561 28.9846 43.9154 31.0128 42.2341 32.7C40.5528 34.3872 38.5317 35.2308 36.1707 35.2308ZM36.1707 30.9231C37.3512 30.9231 38.3618 30.5013 39.2024 29.6577C40.0431 28.8141 40.4634 27.8 40.4634 26.6154C40.4634 25.4308 40.0431 24.4167 39.2024 23.5731C38.3618 22.7295 37.3512 22.3077 36.1707 22.3077C34.9902 22.3077 33.9797 22.7295 33.139 23.5731C32.2984 24.4167 31.878 25.4308 31.878 26.6154C31.878 27.8 32.2984 28.8141 33.139 29.6577C33.9797 30.5013 34.9902 30.9231 36.1707 30.9231ZM59.9951 60L53.1268 53.1077C52.3756 53.5385 51.5707 53.8974 50.7122 54.1846C49.8537 54.4718 48.9415 54.6154 47.9756 54.6154C45.2927 54.6154 43.0122 53.6731 41.1341 51.7885C39.2561 49.9038 38.3171 47.6154 38.3171 44.9231C38.3171 42.2308 39.2561 39.9423 41.1341 38.0577C43.0122 36.1731 45.2927 35.2308 47.9756 35.2308C50.6585 35.2308 52.939 36.1731 54.8171 38.0577C56.6951 39.9423 57.6341 42.2308 57.6341 44.9231C57.6341 45.8923 57.4911 46.8077 57.2049 47.6692C56.9187 48.5308 56.561 49.3385 56.1317 50.0923L63 56.9846L59.9951 60ZM47.9756 50.3077C49.478 50.3077 50.748 49.7872 51.7854 48.7462C52.8228 47.7051 53.3415 46.4308 53.3415 44.9231C53.3415 43.4154 52.8228 42.141 51.7854 41.1C50.748 40.059 49.478 39.5385 47.9756 39.5385C46.4732 39.5385 45.2033 40.059 44.1659 41.1C43.1285 42.141 42.6098 43.4154 42.6098 44.9231C42.6098 46.4308 43.1285 47.7051 44.1659 48.7462C45.2033 49.7872 46.4732 50.3077 47.9756 50.3077ZM19 52.4615V46.4846C19 45.2641 19.3041 44.1333 19.9122 43.0923C20.5203 42.0513 21.361 41.2615 22.4341 40.7231C24.2585 39.7897 26.3154 39 28.6049 38.3538C30.8943 37.7077 33.4341 37.3846 36.2244 37.3846C35.7951 38.0308 35.4285 38.7218 35.1244 39.4577C34.8203 40.1936 34.5789 40.9564 34.4 41.7462C32.2537 41.9256 30.3398 42.2936 28.6585 42.85C26.9772 43.4064 25.5642 43.9897 24.4195 44.6C24.0618 44.7795 23.7846 45.0397 23.5878 45.3808C23.3911 45.7218 23.2927 46.0897 23.2927 46.4846V48.1538H34.4C34.5789 48.9436 34.8203 49.6974 35.1244 50.4154C35.4285 51.1333 35.7951 51.8154 36.2244 52.4615H19Z" fill="white"/>
</svg>
