<svg width="78" height="78" viewBox="0 0 78 78" fill="none" xmlns="http://www.w3.org/2000/svg">
<circle cx="39" cy="39" r="39" fill="#343C4F"/>
<path d="M35.4759 66V59.4306C32.7362 58.8194 30.3712 57.6481 28.381 55.9167C26.3908 54.1852 24.9305 51.7407 24 48.5833L29.738 46.2917C30.5134 48.7361 31.6635 50.5949 33.1885 51.8681C34.7135 53.1412 36.7166 53.7778 39.1979 53.7778C41.3173 53.7778 43.1136 53.3067 44.5869 52.3646C46.0602 51.4225 46.7968 49.9583 46.7968 47.9722C46.7968 46.1898 46.2282 44.7766 45.0909 43.7326C43.9537 42.6887 41.3173 41.5046 37.1818 40.1806C32.7362 38.8056 29.6863 37.1632 28.0321 35.2535C26.3779 33.3437 25.5508 31.0139 25.5508 28.2639C25.5508 24.9537 26.6364 22.3819 28.8075 20.5486C30.9786 18.7153 33.2014 17.6713 35.4759 17.4167V11H41.6791V17.4167C44.2638 17.8241 46.3962 18.7535 48.0762 20.2049C49.7562 21.6562 50.984 23.4259 51.7594 25.5139L46.0214 27.9583C45.4011 26.3287 44.5223 25.1065 43.385 24.2917C42.2478 23.4769 40.697 23.0694 38.7326 23.0694C36.4581 23.0694 34.7264 23.566 33.5374 24.559C32.3485 25.5521 31.754 26.787 31.754 28.2639C31.754 29.9444 32.5294 31.2685 34.0802 32.2361C35.631 33.2037 38.3191 34.2222 42.1444 35.2917C45.7112 36.3102 48.4122 37.9271 50.2473 40.1424C52.0824 42.3576 53 44.9167 53 47.8194C53 51.4352 51.9144 54.1852 49.7433 56.0694C47.5722 57.9537 44.8841 59.125 41.6791 59.5833V66H35.4759Z" fill="white"/>
</svg>
