<svg width="78" height="78" viewBox="0 0 78 78" fill="none" xmlns="http://www.w3.org/2000/svg">
<circle cx="39" cy="39" r="39" fill="#343C4F"/>
<g clip-path="url(#clip0_35_8)">
<path d="M27.9286 28.5C27.9286 31.2848 29.0423 33.9555 31.0249 35.9246C33.0074 37.8938 35.6963 39 38.5 39C41.3037 39 43.9926 37.8938 45.9751 35.9246C47.9577 33.9555 49.0714 31.2848 49.0714 28.5C49.0714 25.7152 47.9577 23.0445 45.9751 21.0754C43.9926 19.1062 41.3037 18 38.5 18C35.6963 18 33.0074 19.1062 31.0249 21.0754C29.0423 23.0445 27.9286 25.7152 27.9286 28.5ZM35.7333 44.9227L37.2694 47.4656L34.5192 57.6293L31.546 45.5789C31.3808 44.9145 30.7366 44.4797 30.0676 44.652C24.2864 46.0875 20 51.2883 20 57.4816C20 58.8762 21.1397 60 22.5355 60H33.4208C33.4208 60 33.4208 60 33.429 60H33.875H43.125H43.5792C43.5792 60 43.5792 60 43.5875 60H54.4645C55.8685 60 57 58.868 57 57.4816C57 51.2883 52.7136 46.0875 46.9324 44.652C46.2634 44.4879 45.6192 44.9227 45.454 45.5789L42.4808 57.6293L39.7306 47.4656L41.2667 44.9227C41.7953 44.0449 41.1594 42.9375 40.1353 42.9375H38.5H36.873C35.8489 42.9375 35.2129 44.0531 35.7415 44.9227H35.7333Z" fill="white"/>
</g>
<defs>
<clipPath id="clip0_35_8">
<rect width="37" height="42" fill="white" transform="translate(20 18)"/>
</clipPath>
</defs>
</svg>
