<svg width="180" height="180" viewBox="0 0 180 180" fill="none" xmlns="http://www.w3.org/2000/svg">
<circle cx="90" cy="90" r="90" fill="#343C4F"/>
<g clip-path="url(#clip0_35_23)">
<path d="M64.0714 64.2568C64.0714 70.9553 66.7505 77.3794 71.5193 82.116C76.2881 86.8525 82.7559 89.5135 89.5 89.5135C96.2441 89.5135 102.712 86.8525 107.481 82.116C112.249 77.3794 114.929 70.9553 114.929 64.2568C114.929 57.5582 112.249 51.1341 107.481 46.3975C102.712 41.661 96.2441 39 89.5 39C82.7559 39 76.2881 41.661 71.5193 46.3975C66.7505 51.1341 64.0714 57.5582 64.0714 64.2568ZM82.8449 103.76L86.54 109.877L79.9246 134.325L72.7728 105.338C72.3754 103.74 70.8259 102.694 69.2167 103.109C55.3105 106.562 45 119.072 45 133.969C45 137.324 47.7415 140.027 51.0989 140.027H77.2824C77.2824 140.027 77.2824 140.027 77.3022 140.027H78.375H100.625H101.718C101.718 140.027 101.718 140.027 101.738 140.027H127.901C131.278 140.027 134 137.304 134 133.969C134 119.072 123.69 106.562 109.783 103.109C108.174 102.714 106.625 103.76 106.227 105.338L99.0754 134.325L92.46 109.877L96.1551 103.76C97.4266 101.649 95.8969 98.9848 93.4335 98.9848H89.5H85.5864C83.123 98.9848 81.5933 101.668 82.8647 103.76H82.8449Z" fill="white"/>
</g>
<defs>
<clipPath id="clip0_35_23">
<rect width="89" height="101.027" fill="white" transform="translate(45 39)"/>
</clipPath>
</defs>
</svg>
