<svg width="180" height="180" viewBox="0 0 180 180" fill="none" xmlns="http://www.w3.org/2000/svg">
<circle cx="90" cy="90" r="90" fill="#343C4F"/>
<path d="M78.1951 81.2051C72.6683 81.2051 67.937 79.2368 64.0012 75.3C60.0654 71.3632 58.0976 66.6308 58.0976 61.1026C58.0976 55.5744 60.0654 50.8419 64.0012 46.9051C67.937 42.9684 72.6683 41 78.1951 41C83.722 41 88.4533 42.9684 92.389 46.9051C96.3248 50.8419 98.2927 55.5744 98.2927 61.1026C98.2927 66.6308 96.3248 71.3632 92.389 75.3C88.4533 79.2368 83.722 81.2051 78.1951 81.2051ZM78.1951 71.1538C80.9585 71.1538 83.3242 70.1697 85.2921 68.2013C87.26 66.2329 88.2439 63.8667 88.2439 61.1026C88.2439 58.3385 87.26 55.9722 85.2921 54.0038C83.3242 52.0355 80.9585 51.0513 78.1951 51.0513C75.4317 51.0513 73.0661 52.0355 71.0982 54.0038C69.1303 55.9722 68.1463 58.3385 68.1463 61.1026C68.1463 63.8667 69.1303 66.2329 71.0982 68.2013C73.0661 70.1697 75.4317 71.1538 78.1951 71.1538ZM133.966 139L117.888 122.918C116.129 123.923 114.245 124.761 112.235 125.431C110.226 126.101 108.09 126.436 105.829 126.436C99.5488 126.436 94.2104 124.237 89.814 119.84C85.4177 115.442 83.2195 110.103 83.2195 103.821C83.2195 97.5385 85.4177 92.1987 89.814 87.8013C94.2104 83.4038 99.5488 81.2051 105.829 81.2051C112.11 81.2051 117.448 83.4038 121.845 87.8013C126.241 92.1987 128.439 97.5385 128.439 103.821C128.439 106.082 128.104 108.218 127.434 110.228C126.764 112.238 125.927 114.123 124.922 115.882L141 131.964L133.966 139ZM105.829 116.385C109.346 116.385 112.319 115.17 114.748 112.741C117.176 110.312 118.39 107.338 118.39 103.821C118.39 100.303 117.176 97.3291 114.748 94.9C112.319 92.4709 109.346 91.2564 105.829 91.2564C102.312 91.2564 99.3394 92.4709 96.911 94.9C94.4825 97.3291 93.2683 100.303 93.2683 103.821C93.2683 107.338 94.4825 110.312 96.911 112.741C99.3394 115.17 102.312 116.385 105.829 116.385ZM38 121.41V107.464C38 104.616 38.7118 101.978 40.1354 99.5487C41.5589 97.1197 43.5268 95.2769 46.039 94.0205C50.3098 91.8427 55.1248 90 60.4841 88.4923C65.8435 86.9846 71.789 86.2308 78.3207 86.2308C77.3159 87.7385 76.4575 89.3509 75.7457 91.068C75.0339 92.785 74.4687 94.565 74.05 96.4077C69.0256 96.8265 64.5455 97.685 60.6098 98.9833C56.674 100.282 53.3663 101.643 50.6866 103.067C49.8492 103.485 49.2002 104.093 48.7396 104.888C48.2791 105.684 48.0488 106.543 48.0488 107.464V111.359H74.05C74.4687 113.202 75.0339 114.961 75.7457 116.636C76.4575 118.311 77.3159 119.903 78.3207 121.41H38Z" fill="white"/>
</svg>
