<svg width="88" height="88" viewBox="0 0 88 88" fill="none" xmlns="http://www.w3.org/2000/svg">
<g clip-path="url(#clip0_1_2)">
<rect width="88" height="88" rx="44" fill="#1649FF"/>
<path d="M16.1 25.3438C16.1 23.6613 16.7637 22.0477 17.9452 20.858C19.1267 19.6684 20.7291 19 22.4 19C24.0709 19 25.6733 19.6684 26.8548 20.858C28.0363 22.0477 28.7 23.6613 28.7 25.3438C28.7 27.0262 28.0363 28.6398 26.8548 29.8295C25.6733 31.0191 24.0709 31.6875 22.4 31.6875C20.7291 31.6875 19.1267 31.0191 17.9452 29.8295C16.7637 28.6398 16.1 27.0262 16.1 25.3438ZM15.2 43.2082C14.075 44.477 13.4 46.1648 13.4 48C13.4 49.8352 14.075 51.523 15.2 52.7918V43.2082ZM31.445 37.6234C28.1037 40.6027 26 44.9641 26 49.8125C26 53.698 27.35 57.2664 29.6 60.0645V62.5C29.6 64.5051 27.9913 66.125 26 66.125H18.8C16.8087 66.125 15.2 64.5051 15.2 62.5V59.4641C10.9475 57.425 8 53.0637 8 48C8 40.9879 13.6362 35.3125 20.6 35.3125H24.2C26.9 35.3125 29.3975 36.1621 31.445 37.6121V37.6234ZM58.4 62.5V60.0645C60.65 57.2664 62 53.698 62 49.8125C62 44.9641 59.8963 40.6027 56.555 37.6121C58.6025 36.1621 61.1 35.3125 63.8 35.3125H67.4C74.3637 35.3125 80 40.9879 80 48C80 53.0637 77.0525 57.425 72.8 59.4641V62.5C72.8 64.5051 71.1912 66.125 69.2 66.125H62C60.0087 66.125 58.4 64.5051 58.4 62.5ZM59.3 25.3438C59.3 23.6613 59.9637 22.0477 61.1452 20.858C62.3267 19.6684 63.9291 19 65.6 19C67.2709 19 68.8733 19.6684 70.0548 20.858C71.2362 22.0477 71.9 23.6613 71.9 25.3438C71.9 27.0262 71.2362 28.6398 70.0548 29.8295C68.8733 31.0191 67.2709 31.6875 65.6 31.6875C63.9291 31.6875 62.3267 31.0191 61.1452 29.8295C59.9637 28.6398 59.3 27.0262 59.3 25.3438ZM72.8 43.2082V52.8031C73.925 51.523 74.6 49.8465 74.6 48.0113C74.6 46.1762 73.925 44.4883 72.8 43.2195V43.2082ZM44 19C45.9096 19 47.7409 19.7638 49.0912 21.1235C50.4414 22.4831 51.2 24.3272 51.2 26.25C51.2 28.1728 50.4414 30.0169 49.0912 31.3765C47.7409 32.7362 45.9096 33.5 44 33.5C42.0904 33.5 40.2591 32.7362 38.9088 31.3765C37.5586 30.0169 36.8 28.1728 36.8 26.25C36.8 24.3272 37.5586 22.4831 38.9088 21.1235C40.2591 19.7638 42.0904 19 44 19ZM35 49.8125C35 51.6477 35.675 53.3242 36.8 54.6043V45.0207C35.675 46.3008 35 47.9773 35 49.8125ZM51.2 45.0207V54.6156C52.325 53.3355 53 51.659 53 49.8238C53 47.9887 52.325 46.3008 51.2 45.032V45.0207ZM58.4 49.8125C58.4 54.8762 55.4525 59.2375 51.2 61.2766V66.125C51.2 68.1301 49.5912 69.75 47.6 69.75H40.4C38.4087 69.75 36.8 68.1301 36.8 66.125V61.2766C32.5475 59.2375 29.6 54.8762 29.6 49.8125C29.6 42.8004 35.2363 37.125 42.2 37.125H45.8C52.7637 37.125 58.4 42.8004 58.4 49.8125Z" fill="white"/>
</g>
<defs>
<clipPath id="clip0_1_2">
<rect width="88" height="88" rx="44" fill="white"/>
</clipPath>
</defs>
</svg>
